<svg width="24" height="25" viewBox="0 0 24 25" fill="none" xmlns="http://www.w3.org/2000/svg">
<g id="Buy 3">
<g id="Group">
<path id="Vector" d="M2.75 3.75L4.83 4.11L5.793 15.583C5.82999 16.0345 6.03584 16.4554 6.36948 16.7618C6.70312 17.0682 7.14002 17.2375 7.593 17.236H18.503C18.9367 17.2365 19.3561 17.0803 19.6838 16.7963C20.0116 16.5122 20.2258 16.1194 20.287 15.69L21.237 9.132C21.2623 8.95759 21.253 8.7799 21.2096 8.60909C21.1662 8.43828 21.0896 8.2777 20.9841 8.13653C20.8786 7.99536 20.7463 7.87637 20.5947 7.78637C20.4432 7.69637 20.2754 7.63711 20.101 7.612C20.037 7.605 5.164 7.6 5.164 7.6" stroke="white" stroke-width="1.5" stroke-linecap="round" stroke-linejoin="round"/>
<path id="Vector_2" d="M14.125 11.295H16.898" stroke="white" stroke-width="1.5" stroke-linecap="round" stroke-linejoin="round"/>
<path id="Vector_3" fill-rule="evenodd" clip-rule="evenodd" d="M7.15398 20.703C7.22732 20.6999 7.30053 20.7116 7.36921 20.7375C7.4379 20.7634 7.50063 20.8029 7.55363 20.8537C7.60664 20.9045 7.64882 20.9655 7.67763 21.033C7.70645 21.1005 7.7213 21.1731 7.7213 21.2465C7.7213 21.3199 7.70645 21.3926 7.67763 21.4601C7.64882 21.5276 7.60664 21.5886 7.55363 21.6393C7.50063 21.6901 7.4379 21.7296 7.36921 21.7555C7.30053 21.7814 7.22732 21.7932 7.15398 21.79C7.01387 21.784 6.88149 21.7241 6.78448 21.6228C6.68746 21.5216 6.6333 21.3868 6.6333 21.2465C6.6333 21.1063 6.68746 20.9715 6.78448 20.8702C6.88149 20.7689 7.01387 20.709 7.15398 20.703Z" fill="white" stroke="white" stroke-width="1.5" stroke-linecap="round" stroke-linejoin="round"/>
<path id="Vector_4" fill-rule="evenodd" clip-rule="evenodd" d="M18.435 20.703C18.5796 20.703 18.7182 20.7604 18.8204 20.8626C18.9226 20.9648 18.98 21.1035 18.98 21.248C18.98 21.3925 18.9226 21.5312 18.8204 21.6334C18.7182 21.7356 18.5796 21.793 18.435 21.793C18.2905 21.793 18.1518 21.7356 18.0496 21.6334C17.9474 21.5312 17.89 21.3925 17.89 21.248C17.89 21.1035 17.9474 20.9648 18.0496 20.8626C18.1518 20.7604 18.2905 20.703 18.435 20.703Z" fill="white" stroke="white" stroke-width="1.5" stroke-linecap="round" stroke-linejoin="round"/>
</g>
</g>
</svg>
